Patient4_TMGait_0pt3_02_right_01_EMG.mot
version=1
nRows=23
nColumns=33
inDegrees=no
endheader
time	1LAddLong	2LGlutMax	3LGlutMed	4LIliopsoas	5LSemiMemb	6LBicFemLong	7LRecFem	8LVastMed	9LVastLat	10LGasMed	11LTibAnt	12lTibPost	13LPeroneusLong	14LSol	15LExtDigLong	16LFlexDigLong	17RAddLong	18RGlutMax	19RGlutMed	20RIliopsoas	21RSemiMemb	22RBicFemLong	23RRecFem	24RVastMed	25RVastLat	26RGasMed	27RTibAnt	28RTibPost	29RPeroneusLong	30RSol	31RExtDigLong	32RFlexDigLong
1.655	0.026093	-0.025787	-0.082855	0.009003	0.049591	0.11002	0.012665	-0.00473	0.011444	-0.054626	-0.16144	-0.008545	0.04364	0.091705	0.014191	-0.018311	-0.034027	-0.018768	0.044556	-0.023499	0.12161	0.13687	-0.057983	-0.023346	0.040131	-0.021667	0.048523	-0.001984	0.13473	0.1297	-0.003204	-0.026093
1.656	0.018768	0.024872	-0.059052	0.012817	0.076294	0.13153	0.036926	-0.015259	0.027161	-0.038452	-0.24262	-0.015717	0.00412	0.086365	0.19379	-0.005951	-0.036469	-0.003967	0.0354	-0.039978	0.071716	0.10361	-0.20676	0.066071	0.06073	-0.023804	0.010376	-0.002441	-0.63995	0.094299	-0.002899	-0.021667
1.657	0.006866	0.054169	-0.055237	0.014496	0.067139	0.073242	0.031891	0.000458	0.029449	-0.049896	-0.36362	-0.012665	0.033264	0.075378	-0.14603	-0.011292	-0.027008	-0.030518	0.058594	-0.071716	0.050659	0.057983	-0.32318	-0.009308	-0.083771	-0.01358	0.024872	0.000763	-2.1149	-0.088806	-0.002289	-0.022583
1.658	0.008392	0.15274	-0.028534	0.01358	0.029144	-0.096741	-0.011749	0.00061	-0.012817	-0.021362	-0.15549	-0.015717	-0.073242	0.05722	-0.18326	-0.009308	-0.013733	-0.041046	0.025177	-0.019989	0.025787	0.02533	-0.20538	0.023041	-0.093079	-0.010376	-0.26047	-0.00473	-1.489	-0.098419	0.001373	-0.028534
1.659	0.00824	0.18829	-0.042114	0.01358	0.018921	-0.33371	0.0177	-0.018463	-0.039063	-0.005798	-0.07782	-0.016174	-0.16983	0.14771	0.07782	-0.034027	0.015869	-0.040588	-0.055084	0.082092	0.024567	0.022583	-0.0914	-0.081177	-0.001068	-0.006256	-0.28625	0.000305	0.69138	-0.054932	-0.000916	-0.031738
1.66	0.006409	0.20172	-0.061798	0.010529	0.014038	-0.28473	-0.000305	-0.010681	-0.046844	-0.020599	-0.078735	-0.015717	-0.17868	0.25971	0.12405	-0.032349	0.018921	-0.037079	-0.057373	0.05249	0.019073	0.015564	-0.24307	-0.22583	0.085449	0.000763	-0.28564	-0.00473	0.68787	-0.12024	-0.00061	-0.031433
1.661	0.008545	0.20569	-0.093231	0.011749	0.013885	-0.17609	-0.023193	-0.011597	0.036926	-0.032196	-0.066376	-0.014496	-0.14938	0.22553	0.079041	-0.037079	0.001221	0.00061	-0.049744	0.034943	0.021515	0.007019	-0.35767	-0.28534	0.11948	0.005341	0.050354	-0.000763	1.474	-0.20126	-0.000153	-0.025635
1.662	0.007019	0.1619	-0.070038	0.001984	0.000763	-0.048065	-0.017548	-0.011902	0.11673	-0.056763	-0.025482	-0.014954	-0.095825	0.12329	-0.061493	-0.045929	0.003052	-0.023346	0.088348	0.046997	0.014954	-0.006256	-0.22522	-0.22797	0.095215	-0.00061	0.41626	-0.000305	1.3795	-0.12634	-0.001831	-0.033112
1.663	0.009918	0.17044	-0.066986	0.009003	0.033264	-0.10696	0.029755	0.00412	0.11688	-0.076447	0.011597	-0.017548	-0.06546	0.057373	-0.11002	-0.024872	-0.007629	-0.042267	-0.11795	0.059357	0.011292	0.012817	-0.096588	0.08255	0.21393	-0.001678	0.62286	-0.001526	0.30823	-0.14313	-0.001221	-0.03067
1.664	0.010223	0.15808	-0.017395	0.019836	-0.014191	-0.080261	0.050507	0.004883	0.082245	-0.045166	0.076904	-0.010529	-0.15869	-0.005341	-0.23254	-0.021515	0.001373	-0.064697	0.065155	0.004425	-0.000305	-0.014496	0.023193	0.14587	0.018768	-0.008392	0.53482	-0.001831	0.20996	-0.027161	0.001373	-0.033875
1.665	0.012817	0.15152	0.006256	0.007935	-0.093842	-0.032806	0.017242	-0.017242	0.12329	-0.033264	0.052948	-0.016937	-0.17349	-0.012512	-0.26367	-0.015259	0.021973	-0.027924	0.13382	-0.003662	-0.011749	-0.007935	0.11841	-0.008545	-0.50736	-0.007782	0.15656	-0.001526	0.69656	-0.00061	-0.001678	-0.03479
1.666	0.000153	0.12924	-0.018005	0.000458	-0.084991	-0.026703	-0.02121	0.00412	0.15411	-0.028992	0.019531	-0.021057	-0.081024	0.029449	-0.36118	-0.023804	0.017548	-0.024567	0.10559	0.003052	-0.009613	0.036011	0.073853	-0.019684	-0.20737	-0.000916	0.22537	0.000763	0.1947	-0.019531	-0.000763	-0.037537
1.667	-0.009155	0.096741	0.03067	-0.011444	-0.007629	0.010223	-0.059662	0.023956	0.29144	-0.006561	-0.031281	-0.020905	-0.088654	0.027771	-0.25345	-0.020752	0.014343	-0.080261	-0.037689	0.091095	-0.002747	0.073853	0.063324	0.020599	-0.069733	0.004425	-0.21301	-0.001678	-1.0892	-0.084534	-0.003967	-0.027008
1.668	-0.01358	0.12039	0.02121	0.001678	0.076447	0.026398	-0.063324	0.021057	0.21027	-0.014801	0.022278	-0.019684	-0.1648	-0.00061	-0.14862	-0.014496	0.0177	-0.0354	-0.28625	0.097961	0.006104	0.10529	0.14832	-0.072937	-0.087128	-0.001526	-0.68222	-0.001221	-0.58792	-0.081177	-0.002136	-0.026245
1.669	-0.01236	0.1001	0.024414	-0.010071	0.075531	0.0177	-0.085449	-0.003357	0.043488	-0.012207	0.050354	-0.02243	-0.16846	-0.06134	-0.026245	-0.015717	0.018921	0.006561	-0.23025	0.009766	0.002594	0.098724	-0.046234	-0.073853	-0.12604	-0.00061	-0.44006	-0.002441	0.21988	0.058746	-0.002594	-0.030518
1.67	-0.017242	0.10635	0.033417	0.000458	0.004578	-0.038452	-0.12314	0.010986	0.057983	-0.026703	-0.005798	-0.02243	-0.159	-0.068665	0.007782	-0.015411	0.013885	-0.046692	0.35095	-0.10956	0.010529	0.078583	-0.47684	-0.10101	-0.10819	-0.014496	0.000763	0.000458	0.46173	0.16678	-0.000763	-0.027161
1.671	-0.014343	0.083618	0.032349	0.018616	-0.075073	-0.029449	-0.13763	-0.001831	0.039368	-0.020905	-0.041962	-0.022583	-0.12604	-0.06958	-0.048218	-0.014801	0.014343	-0.016632	0.19134	-0.03418	0.007477	0.061951	-0.31998	-0.041962	-0.032349	-0.009155	-0.38116	-0.001678	0.10361	0.15198	-0.003052	-0.015869
1.672	-0.011749	0.12558	0.015259	0.014343	-0.088348	-0.012054	-0.090637	-0.00473	-0.050354	-0.017853	-0.026093	-0.03006	-0.10361	-0.061951	0.19226	-0.002747	0.00885	-0.016937	-0.13504	-0.000458	0.008392	0.035248	-0.19196	0.027313	0.097351	0.001984	-0.18433	-0.00824	-0.048218	0.099945	-0.00412	-0.027161
1.673	-0.006866	0.10376	-0.013123	0.003815	-0.10544	-0.014801	-0.071106	0.003357	-0.23499	-0.010681	0.025482	-0.032349	-0.1062	-0.022125	0.10468	-0.007477	0.006866	-0.019531	-0.002899	0.049438	-0.00061	0.021515	-0.1651	0.12924	0.13733	-0.00473	0.065918	-0.003815	0.1973	0.103	0	-0.021973
1.674	-0.018005	0.12833	-0.004425	0.008698	-0.083923	0.004272	-0.037079	-0.003662	-0.45273	-0.011292	0.006714	-0.052338	-0.10361	0.061646	0.09903	0.00473	0.00824	-0.023804	0.040131	0.047607	-0.015564	0.011444	-0.086517	0.0914	0.066986	-0.003357	0.19638	-0.005646	0.30426	0.0354	-0.001068	-0.038757
1.675	-0.007172	0.12543	-0.007629	0.009613	-0.016174	0.003052	-0.005798	-0.006409	-0.56061	-0.001373	0.014343	-0.043945	-0.092621	0.024872	0.089111	0.009308	0.025024	0.00824	0.28931	0.027771	0.001221	0.02243	-0.12726	-0.022278	0.004425	-0.00412	0.4274	-0.000916	0.14374	-0.033264	0.00061	-0.033417
1.676	0.006561	0.11414	0.023651	0.020905	0.003815	-0.001068	-0.067139	-0.003204	-0.35492	0	0.041962	-0.040588	-0.081635	-0.058594	0.1033	-0.006409	0.010529	-0.061951	0.27908	-0.024567	0.044403	0.085602	-0.14893	-0.022278	0.040283	-0.006104	0.30823	-0.000916	-0.38284	-0.048218	-0.002747	-0.029297
1.677	0.029144	0.12894	0.018311	0.016174	0.1387	0.049744	-0.025482	0.011292	-0.17441	0.003967	0.086975	-0.023346	-0.082245	-0.072937	0.075836	-0.014496	-0.006409	-0.050812	0.010986	-0.077515	0.059204	0.17548	-0.14862	-0.020599	0.085144	-0.000458	-0.002289	-0.002899	-0.56061	-0.019379	0.001526	-0.032196
